<?xml version="1.0" encoding="UTF-8" standalone="no"?>
<svg
   id="Layer_1"
   data-name="Layer 1"
   width="545"
   height="153"
   viewBox="0 0 545 153"
   version="1.1"
   sodipodi:docname="paypal-button.svg"
   inkscape:version="1.2 (dc2aedaf03, 2022-05-15)"
   inkscape:export-filename="paypal_donate.png"
   inkscape:export-xdpi="96"
   inkscape:export-ydpi="96"
   xmlns:inkscape="http://www.inkscape.org/namespaces/inkscape"
   xmlns:sodipodi="http://sodipodi.sourceforge.net/DTD/sodipodi-0.dtd"
   xmlns="http://www.w3.org/2000/svg"
   xmlns:svg="http://www.w3.org/2000/svg">
  <sodipodi:namedview
     id="namedview83"
     pagecolor="#ffffff"
     bordercolor="#666666"
     borderopacity="1.0"
     inkscape:showpageshadow="2"
     inkscape:pageopacity="0.0"
     inkscape:pagecheckerboard="0"
     inkscape:deskcolor="#d1d1d1"
     showgrid="false"
     inkscape:zoom="0.73430804"
     inkscape:cx="209.04034"
     inkscape:cy="-41.535702"
     inkscape:window-width="1916"
     inkscape:window-height="1052"
     inkscape:window-x="0"
     inkscape:window-y="0"
     inkscape:window-maximized="1"
     inkscape:current-layer="g80"
     showguides="true" />
  <defs
     id="defs64">
    <style
       id="style62">
.cls-1{fill:#009ee3;}.cls-1,.cls-2,.cls-3{fill-rule:evenodd;}.cls-2{fill:#113984;}.cls-3{fill:#172c70;}</style>
  </defs>
  <title
     id="title66">paypal-seeklogo.com</title>
  <path
     d="M0 24.48C0 10.9601 10.9601 0 24.48 0H520.2C533.72 0 544.68 10.9601 544.68 24.48V128.52C544.68 142.04 533.72 153 520.2 153H24.48C10.9601 153 0 142.04 0 128.52V24.48Z"
     fill="#ebf2ff"
     id="path68"
     transform="scale(1, 1)" />
  <g
     transform="scale(0.8, 0.8) translate(45, 25)"
     id="g80">
    <path
       class="cls-1"
       d="M192.95,386.87h38.74c20.8,0,28.63,10.53,27.42,26-2,25.54-17.44,39.67-37.92,39.67H210.85c-2.81,0-4.7,1.86-5.46,6.9L201,488.74c-0.29,1.9-1.29,3-2.79,3.15H173.87c-2.29,0-3.1-1.75-2.5-5.54l14.84-93.93C186.79,388.66,188.85,386.87,192.95,386.87Z"
       id="path70"
       transform="translate(-143.48 -354.54)" />
    <path
       class="cls-2"
       d="m 215.01124,56.11021 c 12.39381,0 23.82988,6.723191 22.26524,23.479016 -1.89653,19.913544 -12.5645,30.932374 -29.39618,30.979784 h -14.70758 c -2.11462,0 -3.13875,1.72584 -3.68874,5.26287 l -2.84479,18.08339 c -0.42672,2.731 -1.83015,4.07754 -3.89737,4.07754 h -13.68345 c -2.18101,0 -2.93962,-1.39395 -2.456,-4.51374 l 11.29382,-72.475818 c 0.55948,-3.565473 1.89653,-4.893042 4.33357,-4.893042 h 32.75304 z m -22.2842,38.802963 h 11.1421 c 6.96974,-0.265514 11.59727,-5.092178 12.06192,-13.797242 0.28448,-5.376657 -3.34737,-9.226608 -9.1223,-9.19816 l -10.4878,0.04741 z m 81.74984,37.532287 c 1.25171,-1.13792 2.52238,-1.72584 2.34221,-0.32241 l -0.44568,3.35686 c -0.22759,1.75428 0.46465,2.68358 2.09566,2.68358 h 12.15675 c 2.04825,0 3.04392,-0.82499 3.5465,-3.99219 l 7.49129,-47.014927 c 0.3793,-2.361177 -0.19914,-3.518059 -1.99136,-3.518059 h -13.37052 c -1.20429,0 -1.79222,0.673267 -2.10514,2.512899 l -0.4931,2.892205 c -0.25603,1.50774 -0.94827,1.773254 -1.59309,0.256032 -2.26635,-5.367175 -8.05076,-7.775765 -16.12048,-7.586112 -18.74718,0.388788 -31.38754,14.622231 -32.74356,32.866832 -1.04309,14.11017 9.0654,25.19537 22.398,25.19537 9.67229,0 13.99637,-2.84479 18.87045,-7.30163 v 0 z m -10.18436,-7.23525 c -8.06972,0 -13.69293,-6.43872 -12.52656,-14.32827 1.16636,-7.88956 8.71454,-14.328271 16.78427,-14.328271 8.06973,0 13.69293,6.438711 12.52657,14.328271 -1.16637,7.88955 -8.70507,14.32827 -16.78428,14.32827 z m 61.16303,-41.723619 h -12.32743 c -2.54135,0 -3.57496,1.896528 -2.76893,4.229258 l 15.30498,44.814961 -15.01102,21.32645 c -1.26119,1.78274 -0.28448,3.40427 1.48878,3.40427 h 13.85413 a 4.2387401,4.2387401 0 0 0 4.11547,-2.0198 l 47.07182,-67.516399 c 1.45085,-2.076698 0.7681,-4.257705 -1.61205,-4.257705 h -13.11449 c -2.24738,0 -3.14823,0.891368 -4.43787,2.759448 l -19.62907,28.447916 -8.77144,-28.514294 c -0.51206,-1.725841 -1.79222,-2.674105 -4.1534,-2.674105 z"
       id="path72"
       style="stroke-width:0.948264" />
    <path
       class="cls-1"
       d="m 437.48465,55.477179 c 12.34604,0 23.73802,6.697275 22.17941,23.38851 -1.88921,19.836782 -12.51606,30.813131 -29.28286,30.860361 h -14.64144 c -2.10648,0 -3.12665,1.71919 -3.67453,5.24258 l -2.83382,18.01369 c -0.42508,2.72047 -1.8231,4.06182 -3.88234,4.06182 h -13.63071 c -2.1726,0 -2.92828,-1.38858 -2.44653,-4.49634 l 11.26918,-72.215333 c 0.55732,-3.551728 1.88922,-4.874181 4.31686,-4.874181 h 32.62678 z m -22.1983,38.653386 h 11.09915 c 6.94288,-0.264491 11.55257,-5.072549 12.01542,-13.744056 0.28339,-5.355931 -3.33446,-9.191042 -9.08713,-9.162704 l -10.44737,0.04723 z m 81.43471,37.387615 c 1.24689,-1.13354 2.51266,-1.71919 2.33319,-0.32117 l -0.44397,3.34391 c -0.22671,1.74753 0.46286,2.67325 2.08758,2.67325 h 12.10989 c 2.04035,0 3.03219,-0.82181 3.53283,-3.97681 l 7.46241,-46.833694 c 0.37785,-2.352076 -0.19837,-3.504498 -1.98368,-3.504498 h -13.30009 c -1.19965,0 -1.78531,0.670672 -2.09703,2.503213 l -0.49119,2.881056 c -0.25505,1.501928 -0.94461,1.766418 -1.58695,0.255044 -2.25761,-5.346485 -8.01972,-7.745791 -16.05834,-7.556869 -18.67492,0.38729 -31.26655,14.565866 -32.61734,32.740138 -1.03907,14.05577 9.03046,25.09825 22.31166,25.09825 9.635,0 13.94242,-2.83383 18.79771,-7.27349 v 0 z m -10.13565,-7.20737 c -8.03862,0 -13.64015,-6.41389 -12.47828,-14.27304 1.16187,-7.85914 8.68095,-14.273032 16.71957,-14.273032 8.03862,0 13.64015,6.413892 12.47828,14.273032 -1.16186,7.85915 -8.68095,14.27304 -16.71957,14.27304 z m 55.85471,12.97892 h -13.98021 a 1.6530651,1.6530651 0 0 1 -1.70974,-1.88921 l 12.27991,-77.797972 a 2.4087521,2.4087521 0 0 1 2.32374,-1.889217 h 13.98021 a 1.6530651,1.6530651 0 0 1 1.70974,1.889217 l -12.27991,77.797972 a 2.4087521,2.4087521 0 0 1 -2.32374,1.90811 z"
       id="path74"
       style="stroke-width:0.944609" />
    <path
       class="cls-2"
       d="M168.72,354.54h38.78c10.92,0,23.88.35,32.54,8,5.79,5.11,8.83,13.24,8.13,22-2.38,29.61-20.09,46.2-43.85,46.2H185.2c-3.26,0-5.41,2.16-6.33,8l-5.34,34c-0.35,2.2-1.3,3.5-3,3.66H146.6c-2.65,0-3.59-2-2.9-6.42L160.9,361C161.59,356.62,164,354.54,168.72,354.54Z"
       id="path76"
       transform="translate(-143.48 -354.54)" />
    <path
       class="cls-3"
       d="M179.43,435.29l6.77-42.87c0.59-3.76,2.65-5.56,6.75-5.56h38.74c6.41,0,11.6,1,15.66,2.85-3.89,26.36-20.94,41-43.26,41H185C182.44,430.72,180.56,432,179.43,435.29Z"
       transform="translate(-143.48 -354.54)"
       id="path78" />
    <text
       xml:space="preserve"
       style="font-style:normal;font-weight:normal;font-size:50px;line-height:1.25;font-family:sans-serif;fill:#000000;fill-opacity:1;stroke:none;stroke-width:1.25"
       x="218.96207"
       y="37.366718"
       id="text357"><tspan
         sodipodi:role="line"
         id="tspan355"
         style="font-style:normal;font-variant:normal;font-weight:normal;font-stretch:normal;font-family:sans-serif;-inkscape-font-specification:sans-serif;stroke-width:1.25"
         x="218.96207"
         y="37.366718">Donate with</tspan></text>
  </g>
</svg>
